{"songSettings":{"ticksPerNote":6,"notesPerBeat":4,"beatsPerBar":4},"instruments":[{"name":"<unnamed>","channel":1,"pulseMode":0,"amplitude":100,"arpSpeed":1,"a":0,"d":0,"s":255,"r":0}],"patterns":[{"name":"<unnamed>","notes":[{"tick":24,"note":67,"length":6,"pan":0,"type":0,"velocity":100},{"tick":12,"note":63,"length":6,"pan":0,"type":0,"velocity":100},{"tick":18,"note":65,"length":6,"pan":0,"type":0,"velocity":100},{"tick":18,"note":64,"length":6,"pan":0,"type":0,"velocity":100},{"tick":24,"note":65,"length":6,"pan":0,"type":0,"velocity":100},{"tick":24,"note":66,"length":6,"pan":0,"type":0,"velocity":100},{"tick":30,"note":66,"length":6,"pan":0,"type":0,"velocity":100},{"tick":30,"note":67,"length":6,"pan":0,"type":0,"velocity":100},{"tick":36,"note":68,"length":6,"pan":0,"type":0,"velocity":100},{"tick":36,"note":69,"length":6,"pan":0,"type":0,"velocity":100},{"tick":42,"note":69,"length":6,"pan":0,"type":0,"velocity":100},{"tick":42,"note":71,"length":6,"pan":0,"type":0,"velocity":100},{"tick":48,"note":71,"length":6,"pan":0,"type":0,"velocity":100},{"tick":54,"note":72,"length":6,"pan":0,"type":0,"velocity":100},{"tick":54,"note":73,"length":6,"pan":0,"type":0,"velocity":100},{"tick":60,"note":74,"length":6,"pan":0,"type":0,"velocity":100},{"tick":66,"note":76,"length":6,"pan":0,"type":0,"velocity":100},{"tick":72,"note":76,"length":6,"pan":0,"type":0,"velocity":100},{"tick":72,"note":77,"length":6,"pan":0,"type":0,"velocity":100},{"tick":78,"note":78,"length":6,"pan":0,"type":0,"velocity":100},{"tick":84,"note":79,"length":6,"pan":0,"type":0,"velocity":100},{"tick":90,"note":80,"length":6,"pan":0,"type":0,"velocity":100},{"tick":96,"note":81,"length":6,"pan":0,"type":0,"velocity":100},{"tick":96,"note":82,"length":6,"pan":0,"type":0,"velocity":100},{"tick":102,"note":83,"length":6,"pan":0,"type":0,"velocity":100},{"tick":108,"note":84,"length":6,"pan":0,"type":0,"velocity":100}]}],"patternInstanceLinks":[]}